# xmcd
#
# Track frame offsets:
#	150
#	17325
#	37611
#	57643
#	80659
#
# Disc length: 1410 seconds
#
# Revision: 1
# Processed by: cddbd v1.4PL0 Copyright (c) Steve Scherf et al.
# Submitted via: EasyCDDAExtractor 5.1.0
#
DISCID=30058005
DTITLE=SHeDAISY - Selections from 'The Whole SHeBANG - All Mixed Up'
DYEAR=2001
DGENRE=country
TTITLE0=Little Good-Byes
TTITLE1=I Will... But
TTITLE2=Punishment
TTITLE3=A Night To Remember
TTITLE4=Without Your Love
EXTD=
EXTT0=
EXTT1=
EXTT2=
EXTT3=
EXTT4=
PLAYORDER=
